<svg xmlns="http://www.w3.org/2000/svg" xmlns:xlink="http://www.w3.org/1999/xlink" width="182.359" height="32.422" viewBox="0 0 182.359 32.422">
  <defs>
    <clipPath id="clip-path">
      <rect id="Rect치ngulo_16300" data-name="Rect치ngulo 16300" width="182.359" height="32.422" fill="none"/>
    </clipPath>
  </defs>
  <g id="Logo_quipux" data-name="Logo quipux" clip-path="url(#clip-path)">
    <path id="Trazado_151487" data-name="Trazado 151487" d="M366.346,27.306a.424.424,0,0,1-.3-.729l10.283-10.012a.425.425,0,1,1,.592.608L368.7,25.182,378.894,19.9a.425.425,0,0,1,.388,0l10.224,5.179L366.051,2.509a.425.425,0,0,1,.487-.685L379.1,8.186l12.551-6.508a.425.425,0,0,1,.492.681l-10.671,10.39a.425.425,0,0,1-.592-.609l8.613-8.386L379.3,9.04a.426.426,0,0,1-.387,0L368.685,3.863l23.454,22.564a.424.424,0,0,1-.486.685l-12.561-6.361-12.551,6.508a.426.426,0,0,1-.195.048" transform="translate(-210.619 -0.938)" fill="#222237"/>
    <path id="Trazado_151488" data-name="Trazado 151488" d="M26.364,13.973A13.182,13.182,0,1,0,0,13.973,13.076,13.076,0,0,0,12.18,27.1l-1.823-2.911a10.636,10.636,0,1,1,5.86-.072L14.4,24.5h-.008l1.435,2.423.017,0,3.33,5.553a.76.76,0,0,0,.587.367H21.59a.691.691,0,0,0,.587-1.1l-3.624-5.7a13.127,13.127,0,0,0,7.81-12.069" transform="translate(0 -0.42)" fill="#222237"/>
    <path id="Trazado_151489" data-name="Trazado 151489" d="M89.3,1.78a.732.732,0,0,1,.707-.707H91.42a.706.706,0,0,1,.707.707V17.287c0,4.239,2.64,7.549,6.991,7.549,4.388,0,7.066-3.236,7.066-7.475V1.78a.706.706,0,0,1,.706-.707H108.3a.732.732,0,0,1,.707.707V17.51a9.591,9.591,0,0,1-9.892,9.966c-5.839,0-9.818-4.314-9.818-9.966Z" transform="translate(-51.4 -0.617)" fill="#222237"/>
    <path id="Rect치ngulo_16299" data-name="Rect치ngulo 16299" d="M1.465,0h0A1.464,1.464,0,0,1,2.928,1.464V24.818a1.464,1.464,0,0,1-1.464,1.464h0A1.465,1.465,0,0,1,0,24.818V1.465A1.465,1.465,0,0,1,1.465,0Z" transform="translate(74.428 0.326)" fill="#222237"/>
    <path id="Trazado_151490" data-name="Trazado 151490" d="M224.747,1.718A.716.716,0,0,1,225.463,1h8.328a8.428,8.428,0,0,1,8.442,8.328,8.476,8.476,0,0,1-8.4,8.479h-6.218v8.856a.741.741,0,0,1-.716.715h-1.432a.715.715,0,0,1-.716-.715Zm8.855,13.3a5.758,5.758,0,0,0,5.728-5.766A5.563,5.563,0,0,0,233.6,3.866h-5.992V15.021Z" transform="translate(-129.361 -0.577)" fill="#222237"/>
    <path id="Trazado_151491" data-name="Trazado 151491" d="M291.581,1.991a.731.731,0,0,1,.706-.706H293.7a.706.706,0,0,1,.706.706V17.482c0,4.235,2.638,7.541,6.984,7.541,4.383,0,7.058-3.232,7.058-7.467V1.991a.705.705,0,0,1,.706-.706h1.411a.731.731,0,0,1,.706.706V17.706a9.581,9.581,0,0,1-9.882,9.955c-5.833,0-9.808-4.309-9.808-9.955Z" transform="translate(-167.83 -0.739)" fill="#222237"/>
    <path id="Trazado_151492" data-name="Trazado 151492" d="M396.369,29.836a1.239,1.239,0,1,1-1.239-1.239,1.239,1.239,0,0,1,1.239,1.239" transform="translate(-226.718 -16.46)" fill="#1ecad3"/>
    <path id="Trazado_151493" data-name="Trazado 151493" d="M426.313,1.238A1.239,1.239,0,1,1,425.075,0a1.238,1.238,0,0,1,1.238,1.238" transform="translate(-243.954 0)" fill="#1ecad3"/>
    <path id="Trazado_151494" data-name="Trazado 151494" d="M365.95,1.238A1.239,1.239,0,1,1,364.711,0a1.239,1.239,0,0,1,1.239,1.238" transform="translate(-209.21 0)" fill="#1ecad3"/>
    <path id="Trazado_151495" data-name="Trazado 151495" d="M426.313,59.405a1.239,1.239,0,1,1-1.238-1.238,1.239,1.239,0,0,1,1.238,1.238" transform="translate(-243.954 -33.48)" fill="#1ecad3"/>
    <path id="Trazado_151496" data-name="Trazado 151496" d="M365.95,59.405a1.239,1.239,0,1,1-1.239-1.238,1.239,1.239,0,0,1,1.239,1.238" transform="translate(-209.21 -33.48)" fill="#1ecad3"/>
  </g>
</svg>
